<?xml version="1.0" encoding="utf-8"?>
<!-- Generator: Adobe Illustrator 16.0.0, SVG Export Plug-In . SVG Version: 6.00 Build 0)  -->
<!DOCTYPE svg PUBLIC "-//W3C//DTD SVG 1.1//EN" "http://www.w3.org/Graphics/SVG/1.1/DTD/svg11.dtd">
<svg version="1.1" id="レイヤー_1" xmlns="http://www.w3.org/2000/svg" xmlns:xlink="http://www.w3.org/1999/xlink" x="0px"
	 y="0px" width="595.279px" height="841.89px" viewBox="0 0 595.279 841.89" enable-background="new 0 0 595.279 841.89"
	 xml:space="preserve">
<g>
	<g>
		<path d="M164.338,554.162c0,3.062-2.696,3.062-3.105,3.062c-0.57,0-3.227,0-3.227-3.062v-27.617c0-3.064,2.696-3.064,3.146-3.064
			c2.083,0,3.187,1.104,3.187,3.064V554.162z"/>
		<path d="M202.861,546.97c0,7.191-4.86,10.256-10.744,10.256c-3.146,0-6.905-0.816-9.069-4.248c-0.94-1.553-1.43-3.229-1.43-4.373
			c0-2.572,2.369-2.939,3.227-2.939c0.858,0,3.064,0.203,3.187,2.939c0.123,2.615,0.286,5.844,4.249,5.844
			c2.819,0,4.249-1.676,4.249-4.943v-22.959c0-3.064,2.696-3.064,3.146-3.064c2.042,0,3.186,1.104,3.186,3.064V546.97z"/>
		<path d="M228.065,554.162c0,3.062-2.696,3.062-3.104,3.062c-0.572,0-3.229,0-3.229-3.062v-27.617c0-3.064,2.696-3.064,3.146-3.064
			c2.084,0,3.187,1.104,3.187,3.064V554.162z"/>
		<path d="M253.557,554.162c0,3.062-2.697,3.062-3.146,3.062c-0.572,0-3.188,0-3.188-3.062v-25.777c0-2.82,1.471-4.291,4.536-4.291
			h10.867c8.988,0,9.723,6.33,9.723,8.701c0,6.986-5.352,8.049-7.436,8.457c4.82,0.777,7.354,2.82,7.354,10.744v2.125
			c0,3.104-2.778,3.104-3.188,3.104c-0.612,0-3.228,0-3.228-3.104v-2.287c0-5.354-0.898-9.439-5.597-9.439h-6.7V554.162
			L253.557,554.162z M253.557,539.781h6.823c4.78,0,5.229-4.494,5.229-6.658c0-5.395-2.777-6.375-5.312-6.375h-5.312
			c-0.735,0-1.43,0.693-1.43,1.432L253.557,539.781L253.557,539.781z"/>
		<path d="M296.328,554.162c0,3.062-2.698,3.062-3.105,3.062c-0.573,0-3.229,0-3.229-3.062v-27.617c0-3.064,2.695-3.064,3.145-3.064
			c2.085,0,3.188,1.104,3.188,3.064L296.328,554.162L296.328,554.162z"/>
		<path d="M321.817,554.162c0,3.062-2.695,3.062-3.145,3.062c-0.573,0-3.188,0-3.188-3.062v-25.777c0-2.82,1.472-4.291,4.537-4.291
			h10.866c8.988,0,9.724,6.33,9.724,8.701c0,6.986-5.353,8.049-7.437,8.457c4.82,0.777,7.354,2.82,7.354,10.744v2.125
			c0,3.104-2.778,3.104-3.187,3.104c-0.613,0-3.229,0-3.229-3.104v-2.287c0-5.354-0.898-9.439-5.597-9.439h-6.701v11.768H321.817z
			 M321.817,539.781h6.823c4.779,0,5.229-4.494,5.229-6.658c0-5.395-2.778-6.375-5.312-6.375h-5.312c-0.734,0-1.43,0.693-1.43,1.432
			L321.817,539.781L321.817,539.781z"/>
		<path d="M356.581,528.544c-0.367-0.57-0.695-1.307-0.695-1.959c0-1.309,1.596-3.105,3.596-3.105c1.309,0,1.921,0.818,2.29,1.432
			l8.783,13.768l9.724-14.504c0.12-0.164,0.49-0.693,1.226-0.693c0.694,0,1.39,0.529,1.39,1.43c0,0.246-0.124,0.613-0.204,0.736
			l-10.173,15.074v13.441c0,3.062-2.696,3.062-3.146,3.062c-2.045,0-3.188-1.104-3.188-3.062v-10.826L356.581,528.544z"/>
		<path d="M427.257,540.353c0,9.314-4.576,16.873-14.627,16.873c-10.255,0-14.667-7.762-14.667-16.873
			c0-9.068,4.412-16.873,14.667-16.873C422.968,523.478,427.257,531.406,427.257,540.353z M404.663,540.353
			c0,10.664,3.269,14.137,7.967,14.137c4.413,0,7.885-3.105,7.927-14.137c0-10.336-3.105-14.135-7.927-14.135
			C408.177,526.218,404.663,529.322,404.663,540.353z"/>
	</g>
</g>
<g>
	<path d="M293.018,447.837c-31.032-1.146-56.607,9.322-57.128,23.383c-0.52,14.062,24.214,26.389,55.245,27.535
		c31.032,1.15,56.608-9.316,57.129-23.379C348.782,461.316,324.049,448.988,293.018,447.837z"/>
	<path d="M422.842,295.04l-138.497-33.241c-0.322-0.085-0.656-0.118-0.987-0.12l-0.053-0.015l-0.124,0.025
		c-0.166,0.004-0.334,0-0.499,0.028l-48.303,6.988c-0.967,0.158-1.716,0.929-1.846,1.899c-0.131,0.97,0.389,1.913,1.279,2.318
		l118.094,50.84l-2.539,111.001l-71.798-47.917l0.146-22.524c0-0.009-0.003-0.02-0.003-0.028c0-0.321-0.046-0.634-0.12-0.94
		c-0.01-0.043-0.018-0.086-0.031-0.128c-0.082-0.293-0.201-0.571-0.348-0.837c-0.024-0.046-0.049-0.089-0.074-0.133
		c-0.155-0.257-0.339-0.495-0.55-0.712c-0.036-0.037-0.073-0.072-0.11-0.108c-0.197-0.187-0.409-0.363-0.646-0.51l-35.104-20.598
		c-0.852-0.525-1.875-0.707-2.855-0.509l-87.871,19.229c-0.951,0.193-1.732,0.868-2.062,1.781c-0.326,0.915-0.154,1.932,0.456,2.687
		l55.441,68.778l0.768,21.188l-55.093-66.6c-0.262-0.333-0.745-0.392-1.078-0.129c-0.333,0.261-0.392,0.743-0.129,1.077
		l55.994,73.707c0.767,0.979,1.927,1.518,3.122,1.512c0.429-0.002,0.86-0.072,1.282-0.217c1.593-0.553,2.661-2.057,2.656-3.744
		l1.365-26.48l61.217-18.856c1.401-0.429,2.45-1.593,2.729-3.03c0.278-1.437-0.261-2.911-1.401-3.831l-33.745-27.193l-1.778-1.435
		l1.785-0.517l29.568-8.563l-0.14,18.314c-0.01,1.273,0.594,2.472,1.621,3.222l78.217,55.817c0.009,0.01,0.021,0.014,0.029,0.018
		c0.007,0.006,0.012,0.014,0.019,0.02c0.188,0.133,0.386,0.246,0.593,0.34c0.066,0.033,0.134,0.057,0.204,0.084
		c0.151,0.061,0.307,0.115,0.465,0.158c0.081,0.021,0.164,0.039,0.245,0.057c0.157,0.031,0.318,0.051,0.479,0.064
		c0.071,0.006,0.145,0.016,0.219,0.016c0.03,0,0.062,0.006,0.093,0.006c0.123,0,0.243-0.021,0.365-0.033
		c0.091-0.008,0.184-0.01,0.276-0.025c0.16-0.025,0.316-0.074,0.474-0.119c0.079-0.023,0.161-0.039,0.238-0.066
		c0.013-0.006,0.023-0.008,0.035-0.01l56.54-21.461c1.406-0.535,2.39-1.818,2.532-3.314l12.149-123.024
		C425.937,297.316,424.707,295.54,422.842,295.04z"/>
</g>
</svg>
